<svg width="22" height="20" viewBox="0 0 22 20" fill="none" xmlns="http://www.w3.org/2000/svg">
<path d="M15.55 11C16.3 11 16.96 10.59 17.3 9.97L20.88 3.48C20.9643 3.32843 21.0076 3.15747 21.0055 2.98406C21.0034 2.81064 20.9561 2.64077 20.8682 2.49126C20.7803 2.34175 20.6549 2.21778 20.5044 2.13162C20.3539 2.04545 20.1835 2.00009 20.01 2H5.21003L4.27003 0C4.27003 0 1.99998 3.01335e-06 1.00003 0C7.19428e-05 -3.01334e-06 6.10352e-05 2 1.00003 2C2 2 3.00003 2 3.00003 2L6.60003 9.59L5.25003 12.03C4.52003 13.37 5.48003 15 7.00003 15C7.00003 15 18 15 19 15C20.0001 15 20.0001 13 19 13C18 13 7.00003 13 7.00003 13L8.10003 11H15.55ZM6.16003 4H18.31L15.55 9H8.53003L6.16003 4ZM7.00003 16C5.90003 16 5.01003 16.9 5.01003 18C5.01003 19.1 5.90003 20 7.00003 20C8.10003 20 9.00003 19.1 9.00003 18C9.00003 16.9 8.10003 16 7.00003 16ZM17 16C15.9 16 15.01 16.9 15.01 18C15.01 19.1 15.9 20 17 20C18.1 20 19 19.1 19 18C19 16.9 18.1 16 17 16Z" fill="#122025"/>
</svg>
