<svg width="32" height="33" viewBox="0 0 32 33" fill="none" xmlns="http://www.w3.org/2000/svg">
<path d="M28 12.5C26.5333 12.5 25.3333 13.7 25.3333 15.1667V20.5H6.66665V15.1667C6.66665 13.7 5.46665 12.5 3.99998 12.5C2.53331 12.5 1.33331 13.7 1.33331 15.1667V21.8333C1.33331 24.0333 3.13331 25.8333 5.33331 25.8333V27.1667C5.33331 27.9 5.93331 28.5 6.66665 28.5C7.39998 28.5 7.99998 27.9 7.99998 27.1667V25.8333H24V27.1667C24 27.9 24.6 28.5 25.3333 28.5C26.0666 28.5 26.6666 27.9 26.6666 27.1667V25.8333C28.8666 25.8333 30.6666 24.0333 30.6666 21.8333V15.1667C30.6666 13.7 29.4666 12.5 28 12.5Z" fill="black"/>
<path d="M9.33331 15.1667V17.8333H22.6666V15.1667C22.6666 12.6867 24.3733 10.62 26.6666 10.02V8.5C26.6666 6.3 24.8666 4.5 22.6666 4.5H9.33331C7.13331 4.5 5.33331 6.3 5.33331 8.5V10.02C7.62665 10.62 9.33331 12.6867 9.33331 15.1667Z" fill="#F2C229"/>
<circle cx="14" cy="10" r="1" fill="#122025"/>
<circle cx="18" cy="10" r="1" fill="#122025"/>
</svg>
